<?xml version="1.0" encoding="iso-8859-1"?>
<!-- Generator: Adobe Illustrator 19.0.0, SVG Export Plug-In . SVG Version: 6.00 Build 0)  -->
<svg version="1.1" id="Capa_1" xmlns="http://www.w3.org/2000/svg" xmlns:xlink="http://www.w3.org/1999/xlink" x="0px" y="0px"
	 viewBox="0 0 512.001 512.001" style="enable-background:new 0 0 512.001 512.001;" xml:space="preserve">
<g>
	<g>
		<g>
			<path d="M338.48,358.084H66.065c-4.142,0-7.5,3.358-7.5,7.5c0,4.142,3.358,7.5,7.5,7.5h272.414c4.142,0,7.5-3.358,7.5-7.5
				S342.622,358.084,338.48,358.084z"/>
			<path d="M293.858,224.544c22.87,0,41.475-18.411,41.475-41.041s-18.605-41.041-41.475-41.041s-41.475,18.411-41.475,41.041
				S270.988,224.544,293.858,224.544z M293.858,157.462c14.599,0,26.475,11.682,26.475,26.041s-11.876,26.041-26.475,26.041
				s-26.475-11.682-26.475-26.041C267.383,169.146,279.259,157.462,293.858,157.462z"/>
			<path d="M512.001,336.758c0-14.662-12.074-26.591-26.914-26.591h-0.038c1.718-3.498,2.684-7.42,2.684-11.562v-9.792
				c0-7.477-3.148-14.238-8.198-19.07c5.05-4.836,8.198-11.601,8.198-19.082v-9.734c0-4.153-0.97-8.086-2.696-11.591h0.079
				c14.824,0,26.884-11.916,26.884-26.562v-9.792c0-7.477-3.148-14.238-8.198-19.07c5.05-4.837,8.198-11.601,8.198-19.083v-9.734
				c0-12.881-9.321-23.65-21.647-26.075c0.386-1.672,0.607-3.392,0.607-5.15c0-6.127-2.412-11.882-6.791-16.205
				C479.817,93.367,474.036,91,467.892,91h-55.4H349.95H237.765h-62.542H71.603c-6.144,0-11.924,2.367-16.278,6.665
				c-4.378,4.323-6.79,10.078-6.79,16.205c0,1.727,0.212,3.418,0.585,5.062C21.48,122.271,0,145.531,0,173.66v0.522
				c0,26.187,18.619,48.154,43.491,53.757c-11.767,10.119-19.224,24.989-19.224,41.552v0.523c0,16.563,7.457,31.433,19.224,41.552
				C18.619,317.169,0,339.136,0,365.323v0.522C0,396.258,25.104,421,55.961,421h429.155c14.824,0,26.884-11.916,26.885-26.564
				v-9.792c0-7.477-3.148-14.238-8.198-19.07c5.05-4.836,8.198-11.601,8.198-19.082V336.758z M497,202.774
				c0,6.375-5.331,11.562-11.884,11.562h-86.298l33.341-32.916h52.957c6.553,0,11.884,5.187,11.884,11.562V202.774z
				 M433.315,277.253h27.533c6.553,0,11.884,5.187,11.884,11.562v9.792c0,6.375-5.331,11.562-11.884,11.562H301.747l33.341-32.916
				h68.781c4.142,0,7.5-3.358,7.5-7.5c0-4.142-3.358-7.5-7.5-7.5h-53.587l33.341-32.916h77.195c6.57,0,11.914,5.2,11.914,11.591
				v9.734c0,6.391-5.345,11.591-11.914,11.591h-27.503c-4.142,0-7.5,3.358-7.5,7.5C425.815,273.894,429.173,277.253,433.315,277.253
				z M485.086,133.504c6.569,0,11.914,5.2,11.915,11.591v9.734c0,6.391-5.345,11.591-11.914,11.591h-37.733l33.341-32.916H485.086z
				 M355.364,106h51.714c0.411,1.835,0.618,3.716,0.618,5.629c0,14.36-11.876,26.042-26.475,26.042s-26.475-11.683-26.475-26.042
				C354.746,109.716,354.953,107.836,355.364,106z M180.638,106h51.714c0.411,1.835,0.618,3.716,0.618,5.629
				c0,14.36-11.876,26.042-26.475,26.042s-26.475-11.683-26.475-26.042C180.02,109.716,180.227,107.836,180.638,106z
				 M65.864,108.337c1.505-1.485,3.597-2.338,5.739-2.338h93.81c-0.256,1.854-0.396,3.731-0.396,5.629
				c0,22.631,18.605,41.042,41.475,41.042s41.475-18.412,41.475-41.042c0-1.898-0.139-3.775-0.396-5.629h92.57
				c-0.256,1.854-0.396,3.731-0.396,5.629c0,22.631,18.605,41.042,41.475,41.042s41.475-18.412,41.475-41.042
				c0-1.898-0.139-3.775-0.396-5.629h45.593c2.142,0,4.234,0.853,5.739,2.339c1.502,1.482,2.329,3.446,2.329,5.53
				c0,2.084-0.827,4.048-2.329,5.53L271.342,319.106c-0.865,0.853-2.325,0.854-3.19,0l-33.791-33.36
				c8.55-7.683,13.608-18.647,13.608-30.369c0-22.63-18.606-41.041-41.475-41.041c-11.873,0-22.985,5.035-30.754,13.537
				l-16.597-16.386c7.095-7.524,11.17-17.487,11.17-27.984c0-22.63-18.606-41.041-41.475-41.041
				c-10.635,0-20.736,4.058-28.35,11.119l-34.624-34.182c-1.502-1.482-2.329-3.446-2.329-5.53
				C63.535,111.785,64.362,109.821,65.864,108.337z M232.969,255.378c0,7.709-3.464,14.92-9.297,19.816l-36.264-35.801l-0.997-0.984
				c4.975-5.695,12.273-9.072,20.083-9.072C221.093,229.337,232.969,241.019,232.969,255.378z M155.312,183.504
				c0,6.512-2.483,12.714-6.836,17.454l-37.312-36.835c4.808-4.242,11.081-6.66,17.673-6.66
				C143.436,157.464,155.312,169.146,155.312,183.504z M15,174.181v-0.522c0-22.141,18.375-40.155,40.961-40.155H58.8l33.341,32.916
				H56.358c-4.142,0-7.5,3.358-7.5,7.5c0,4.142,3.358,7.5,7.5,7.5h50.978l33.341,32.916H55.961
				C33.375,214.336,15,196.323,15,174.181z M39.268,270.014v-0.523c0-22.141,18.375-40.154,40.961-40.154h75.642l23.173,22.877
				l10.168,10.038H85.804c-4.142,0-7.5,3.358-7.5,7.5c0,4.142,3.358,7.5,7.5,7.5h118.601l13.083,12.917
				c0.001,0.001,0.002,0.001,0.003,0.002l20.256,19.997H80.229C57.643,310.168,39.268,292.155,39.268,270.014z M497,346.493
				c0,6.391-5.345,11.591-11.914,11.591H369.3c-4.142,0-7.5,3.358-7.5,7.5c0,4.142,3.358,7.5,7.5,7.5h115.815
				c6.553,0,11.884,5.187,11.884,11.562v9.792c0,6.375-5.331,11.562-11.884,11.562H55.961C33.375,406,15,387.987,15,365.845v-0.522
				c0-22.142,18.375-40.155,40.961-40.155h196.981l4.673,4.614c3.345,3.303,7.738,4.954,12.133,4.954
				c4.393-0.001,8.788-1.652,12.133-4.954l4.673-4.614h198.532c6.569,0,11.914,5.2,11.914,11.591V346.493z"/>
		</g>
	</g>
</g>
<g>
</g>
<g>
</g>
<g>
</g>
<g>
</g>
<g>
</g>
<g>
</g>
<g>
</g>
<g>
</g>
<g>
</g>
<g>
</g>
<g>
</g>
<g>
</g>
<g>
</g>
<g>
</g>
<g>
</g>
</svg>
