<?xml version="1.0" encoding="iso-8859-1"?>
<!-- Generator: Adobe Illustrator 18.0.0, SVG Export Plug-In . SVG Version: 6.00 Build 0)  -->
<!DOCTYPE svg PUBLIC "-//W3C//DTD SVG 1.1//EN" "http://www.w3.org/Graphics/SVG/1.1/DTD/svg11.dtd">
<svg version="1.1" id="Capa_1" xmlns="http://www.w3.org/2000/svg" xmlns:xlink="http://www.w3.org/1999/xlink" x="0px" y="0px"
	 viewBox="0 0 407.672 407.672" style="enable-background:new 0 0 407.672 407.672;" xml:space="preserve">
<g>
	<g>
		<path d="M389.774,150.438c-1.885-3.283-5.924-4.648-9.416-3.176c-0.566,0.238-56.928,23.838-89.914,24.498
			c-0.283,0.006-0.563,0.008-0.848,0.008c-31.133,0-66.664-33.166-67.016-33.498c-2.73-2.58-6.951-2.742-9.873-0.377l-17.721,14.354
			c1.297-5.965,3.82-12.65,8.727-16.738c3.182-2.652,3.611-7.381,0.961-10.563c-2.652-3.182-7.381-3.611-10.564-0.961
			c-9.043,7.537-12.822,19.229-14.393,28.279c-9.451-3.197-20.326-1.336-28.252,5.811c-9.855,8.889-12.047,23.152-6.146,34.398
			l-37.25,30.172c-5.057,0.129-17.346,0.398-33.07,0.398c-11.402,0-22.494-0.141-32.971-0.414c-0.369-0.01-0.732-0.016-1.096-0.016
			c-24.113,0-38.656,21.412-40.656,30.34c-1.16,5.172,1.543,8.479,4.209,9.736c20.133,9.508,107.799,22.734,166.527,22.734
			c30.275,0,49.607-3.354,59.103-10.248c15.307-11.113,34.291-17.357,50.889-20.869v17.834c0,4.143,3.357,7.5,7.5,7.5h110.096
			c4.143,0,7.5-3.357,7.5-7.5V243.11c0-0.064-0.008-0.127-0.01-0.189C413.819,193.052,390.765,152.161,389.774,150.438z
			 M296.005,251.706c13.547-1.855,23.293-1.908,24.228-1.908l70.867,0.002v14.842h-95.096V251.706z M161.513,169.214
			c4.229-3.816,10.23-4.439,15.047-2.043l-19.061,15.439C156.288,177.901,157.657,172.69,161.513,169.214z M221.304,263.038
			c-3.059,2.221-14.08,7.387-50.291,7.387c-52.645,0-127.545-11.031-153.602-18.926c3.785-5.701,11.836-14.174,24.225-13.875
			c10.605,0.277,21.832,0.42,33.363,0.42c20.928,0,35.908-0.473,36.057-0.477c1.635-0.053,3.209-0.639,4.48-1.668l40.555-32.846
			l17.965,15.797c1.424,1.252,3.191,1.867,4.949,1.867c2.082,0,4.152-0.861,5.635-2.547c2.736-3.111,2.432-7.85-0.68-10.584
			l-16.045-14.109l18.016-14.594l26.773,23.543c1.424,1.252,3.191,1.867,4.949,1.867c2.082,0,4.152-0.861,5.635-2.547
			c2.736-3.111,2.432-7.85-0.678-10.584l-24.855-21.855l19.467-15.768c11.932,10.074,43.344,33.83,73.523,33.217
			c29.195-0.584,72.5-16.553,88.9-23.023c5.279,11.605,15.662,39.215,12.377,71.066h-71.49l-0.299-0.002
			C314.089,234.798,259.106,235.591,221.304,263.038z"/>
	</g>
</g>
<g>
</g>
<g>
</g>
<g>
</g>
<g>
</g>
<g>
</g>
<g>
</g>
<g>
</g>
<g>
</g>
<g>
</g>
<g>
</g>
<g>
</g>
<g>
</g>
<g>
</g>
<g>
</g>
<g>
</g>
</svg>
