<?xml version="1.0" encoding="iso-8859-1"?>
<!-- Generator: Adobe Illustrator 19.0.0, SVG Export Plug-In . SVG Version: 6.00 Build 0)  -->
<svg version="1.1" id="Capa_1" xmlns="http://www.w3.org/2000/svg" xmlns:xlink="http://www.w3.org/1999/xlink" x="0px" y="0px"
	 viewBox="0 0 475.001 475.001" style="enable-background:new 0 0 475.001 475.001;" xml:space="preserve">
<g>
	<g>
		<path d="M474.986,386.007L458.959,77.928c-1.372-26.578-23.319-47.424-49.932-47.428H290.982c-3.768,0.01-7.212,2.133-8.915,5.495
			c-8.436,16.6-25.7,27.336-43.984,27.336S202.537,52.586,194.1,35.988c-1.704-3.36-5.148-5.48-8.915-5.488H65.973
			c-26.612,0.005-48.56,20.851-49.932,47.428L0.013,386.02c-0.282,5.498,3.946,10.185,9.445,10.467
			c0.181,0.009,0.361,0.014,0.542,0.013h73.5v19.844c-0.165,15.384,12.172,27.989,27.556,28.155
			c0.056,0.001,0.111,0.001,0.167,0.001h252.554c15.385-0.073,27.797-12.604,27.724-27.989c0-0.056-0.001-0.111-0.001-0.167V396.5
			H465c5.5,0.023,9.977-4.416,10-9.916C475.001,386.392,474.997,386.2,474.986,386.007z M83.5,185.37V376.5H20.534l15.48-297.559
			C36.839,62.998,50.009,50.496,65.973,50.5h48.638l-22.225,73.77C86.428,144.087,83.433,164.677,83.5,185.37z M371.5,416.344
			c0.174,4.327-3.192,7.976-7.519,8.15c-0.068,0.003-0.136,0.005-0.204,0.006H111.223c-4.33-0.062-7.79-3.622-7.729-7.952
			c0.001-0.068,0.003-0.136,0.006-0.204V185.37c-0.066-18.722,2.637-37.352,8.022-55.283L135.515,50.5h43.857
			c10.76,17.026,28.264,28.662,48.128,31.992V258.5c0,5.523,4.477,10,10,10c5.523,0,10-4.477,10-10V82.666
			C267.566,79.8,285.845,67.5,296.8,50.5h43.747l23.409,80.164c5.073,17.447,7.615,35.531,7.549,53.7L371.5,416.344z M391.5,376.5
			V184.366c0.066-20.083-2.75-40.071-8.363-59.353L361.391,50.5h47.636c15.965-0.005,29.135,12.498,29.959,28.441l15.48,297.559
			H391.5z"/>
	</g>
</g>
<g>
	<g>
		<path d="M201.5,240.5h-75c-5.523,0-10,4.477-10,10c0,5.523,4.477,10,10,10h75c5.523,0,10-4.477,10-10
			C211.5,244.977,207.023,240.5,201.5,240.5z"/>
	</g>
</g>
<g>
	<g>
		<path d="M347.5,240.5h-75c-5.523,0-10,4.477-10,10c0,5.523,4.477,10,10,10h75c5.523,0,10-4.477,10-10
			C357.5,244.977,353.023,240.5,347.5,240.5z"/>
	</g>
</g>
<g>
</g>
<g>
</g>
<g>
</g>
<g>
</g>
<g>
</g>
<g>
</g>
<g>
</g>
<g>
</g>
<g>
</g>
<g>
</g>
<g>
</g>
<g>
</g>
<g>
</g>
<g>
</g>
<g>
</g>
</svg>
