<svg height="512pt" viewBox="0 -123 512 512" width="512pt" xmlns="http://www.w3.org/2000/svg"><path d="m486.351562 156.742188c-.035156-.015626-.074218-.035157-.113281-.054688-46.625-22.398438-87.429687-43.890625-127.746093-66.785156l.152343-.210938c3.285157-4.4375 2.347657-10.703125-2.097656-13.984375-4.4375-3.28125-10.703125-2.34375-13.984375 2.097657l-1.535156 2.078124c-7.917969-4.585937-15.847656-9.242187-23.828125-13.980468 1.925781-4.210938.71875-9.335938-3.152344-12.195313-4.402344-3.253906-10.59375-2.355469-13.898437 1.992188-7.984376-4.816407-16.050782-9.726563-24.234376-14.746094 1.660157-4.125.417969-9.003906-3.324218-11.769531-4.210938-3.113282-10.046875-2.425782-13.441406 1.429687-7.816407-4.84375-15.765626-9.796875-23.867188-14.871093 3.109375-4.425782 2.144531-10.550782-2.230469-13.785157-4.441406-3.28125-10.703125-2.34375-13.988281 2.097657l-1.75 2.371093c-30.679688-11.753906-48.304688 5.085938-65.429688 21.457031-12.730468 12.171876-25.898437 24.757813-46.792968 30.183594-5.347656 1.390625-8.554688 6.847656-7.164063 12.191406 1.386719 5.347657 6.84375 8.554688 12.191407 7.167969 18.410156-4.78125 32.027343-14.097656 43.113281-23.617187 46.667969 32.15625 82.648437 54.757812 111.25 69.695312-17.824219 5.515625-33.820313-1.820312-58.015625-16.179687-15.574219-9.246094-31.679688-18.804688-50.496094-22.152344-27.785156-4.949219-44.34375 4.148437-61.875 13.78125-15.367188 8.441406-30.144531 13.546875-44.011719 15.226563-9.632812-15.289063-20.425781-22.054688-30.082031-24.578126v-24.382812c6.097656-2.300781 12.351562-3.25 18.945312-2.890625 5.527344.300781 10.230469-3.929687 10.527344-9.445313.296875-5.515624-3.933594-10.226562-9.445312-10.527343-12.222656-.65625-23.542969 1.792969-34.613282 7.503906-3.324218 1.714844-5.414062 5.144531-5.414062 8.886719v185c0 12.128906 9.867188 22 22 22h368c5.523438 0 10-4.476563 10-10 0-5.523438-4.476562-10-10-10h-368c-1.085938 0-2-.917969-2-2v-18h472v18c0 1.082031-.914062 2-2 2h-31.035156c-5.519532 0-10 4.476562-10 10 0 5.523437 4.480468 10 10 10h31.035156c12.132812 0 22-9.871094 22-22v-50.5c0-11.027344-4.449219-26.3125-25.648438-36.503906zm-163.550781 49.003906h-247.894531c-.988281-11.527344-2.828125-26.511719-6.25-41.984375 21.351562-2.898438 34.132812-10.101563 45.605469-16.574219 1.601562-.90625 3.207031-1.8125 4.835937-2.707031 10.441406-5.734375 17.988282-9.882813 27.867188-8.121094 9.511718 1.695313 20.941406 8.480469 33.042968 15.660156 17.492188 10.382813 35.582032 21.121094 56.609376 24.972657 5.246093.960937 10.460937 1.445312 15.65625 1.445312 19.058593 0 37.84375-6.5 57.011718-19.667969 5.042969-3.464843 8.519532-6.753906 11.878906-9.933593.949219-.902344 1.878907-1.777344 2.828126-2.644532 4.890624.824219 9.46875 1.226563 13.773437 1.226563 19.460937 0 33.398437-8.039063 46.21875-20.480469 16.929687 9.191406 34.203125 18.261719 52.191406 27.367188-47.539062.039062-97.078125 7.667968-113.375 51.441406zm-117.984375-182.417969-2.753906 3.726563c-3.28125 4.441406-2.34375 10.703124 2.097656 13.988281 1.789063 1.320312 3.871094 1.957031 5.9375 1.957031 3.0625 0 6.089844-1.402344 8.050782-4.058594l5.21875-7.0625c8.085937 5.066406 16.011718 10.007813 23.816406 14.847656l-5.582032 7.550782c-3.28125 4.441406-2.34375 10.703125 2.097657 13.988281 1.789062 1.320313 3.871093 1.957031 5.9375 1.957031 3.0625 0 6.089843-1.402344 8.050781-4.054687l6.574219-8.898438c8.085937 4.964844 16.050781 9.816407 23.941406 14.582031l-5.140625 6.953126c-3.28125 4.4375-2.34375 10.703124 2.097656 13.984374 1.789063 1.320313 3.871094 1.960938 5.9375 1.960938 3.066406 0 6.089844-1.40625 8.050782-4.058594l6.292968-8.515625c7.914063 4.707031 15.777344 9.332031 23.625 13.886719l-3.503906 4.738281c-3.28125 4.441407-2.34375 10.703125 2.101562 13.988281 1.785157 1.320313 3.871094 1.957032 5.933594 1.957032 3.066406 0 6.089844-1.402344 8.050782-4.054688l4.871093-6.589844c6.324219 3.597657 12.65625 7.164063 19.015625 10.699219-24.363281 20.640625-58.375 18.375-197.25-76.925781 13.121094-12.480469 22.105469-20.015625 36.53125-16.546875zm-101.09375 93.152344c16.199219-8.898438 27.910156-15.332031 48.742188-11.621094 15.238281 2.714844 29.109375 10.945313 43.792968 19.660156 16.832032 9.992188 35.070313 20.816407 55.980469 20.816407 11 0 22.746094-3.011719 35.402344-10.707032 4.707031 2.035156 9.183594 3.8125 13.441406 5.335938-.96875.773437-1.992187 1.542968-3.121093 2.320312-44.117188 30.300782-75.019532 11.957032-107.746094-7.464844-13.707032-8.136718-26.65625-15.820312-39.742188-18.152343-16.828125-3-29.117187 3.753906-41.003906 10.28125-1.695312.933593-3.367188 1.875-5.035156 2.816406-11.707032 6.605469-22.003906 12.410156-40.972656 14.5-1.054688-3.320313-2.191407-6.609375-3.429688-9.828125-.195312-.503906-.394531-.984375-.589844-1.476562 14.300782-2.644532 29.136719-8.164063 44.28125-16.480469zm-83.722656-5.414063c19.222656 10.921875 31.023438 52.769532 34.828125 94.679688h-34.828125zm324.898438 94.679688c20.460937-35.214844 80.4375-32.527344 129.558593-30.324219 1.667969.074219 3.304688.148437 4.941407.21875 12.59375 6.730469 12.601562 14.855469 12.601562 17.605469v12.5zm0 0"/><path d="m64.613281 68.554688.296875.105468c1.128906.410156 2.28125.605469 3.417969.605469 4.085937 0 7.921875-2.523437 9.398437-6.585937 1.886719-5.191407-.792968-10.929688-5.980468-12.816407l-.351563-.128906c-5.199219-1.871094-10.925781.824219-12.796875 6.019531-1.871094 5.195313.820313 10.925782 6.015625 12.800782zm0 0"/><path d="m430.234375 245.746094h-.269531c-5.523438 0-10 4.476562-10 10 0 5.523437 4.476562 10 10 10h.269531c5.523437 0 10-4.476563 10-10 0-5.523438-4.476563-10-10-10zm0 0"/></svg>