<?xml version="1.0" encoding="iso-8859-1"?>
<!-- Generator: Adobe Illustrator 18.0.0, SVG Export Plug-In . SVG Version: 6.00 Build 0)  -->
<!DOCTYPE svg PUBLIC "-//W3C//DTD SVG 1.1//EN" "http://www.w3.org/Graphics/SVG/1.1/DTD/svg11.dtd">
<svg version="1.1" id="Capa_1" xmlns="http://www.w3.org/2000/svg" xmlns:xlink="http://www.w3.org/1999/xlink" x="0px" y="0px"
	 viewBox="0 0 349.284 349.284" style="enable-background:new 0 0 349.284 349.284;" xml:space="preserve">
<g>
	<g>
		<g>
			<path d="M328.098,169.988c-5.778-136.515-12.957-165.11-13.26-166.26C314.26,1.531,312.275,0,310.003,0H39.281
				c-2.271,0-4.257,1.531-4.835,3.728c-0.303,1.15-7.481,29.746-13.26,166.26c-0.003,0.07-0.005,174.296-0.005,174.296
				c0,2.762,2.238,5,5,5h134.633c2.762,0,5-2.238,5-5v-63.359c0.095-2.15,1.808-38.707,8.828-62.603
				c7.019,23.896,8.731,60.452,8.826,62.603v63.359c0,2.762,2.238,5,5,5h134.635c2.762,0,5-2.238,5-5
				C328.103,344.284,328.101,170.058,328.098,169.988z M43.383,10h66.979v21.936H40.411C41.685,20.542,42.732,13.715,43.383,10z
				 M39.357,41.936h19.389c-0.93,51.549-16.163,69.062-24.94,74.88C35.732,82.87,37.681,58.771,39.357,41.936z M31.181,339.284
				v-16.199h124.633v16.199H31.181z M169.642,203.226c-11.529,23.808-13.828,77.524-13.828,77.592v32.268H31.181V170.304
				c0.647-15.297,1.314-29.219,1.988-41.906c10.05-3.806,34.411-19.899,35.576-86.463h41.617v4.712c0,2.761,2.238,5,5,5
				c2.762,0,5-2.239,5-5v-4.712h49.279V203.226z M169.642,31.936h-49.279V10h49.279V31.936z M315.484,116.814
				c-8.775-5.821-24.01-23.333-24.939-74.879h19.406C311.621,58.736,313.559,82.813,315.484,116.814z M238.919,10h66.993
				c0.656,3.698,1.706,10.505,2.985,21.936h-69.979V10z M179.642,10h49.277v21.936h-49.277V10z M179.642,41.936h15.145v82.242
				c0,22.766-9.189,29.985-15.145,32.276V41.936z M179.642,203.226v-36.365c3.68-0.858,8.786-2.833,13.468-7.412
				c7.749-7.58,11.678-19.447,11.678-35.271V41.936h24.132v4.712c0,2.761,2.238,5,5,5c2.762,0,5-2.239,5-5v-4.712h41.623
				c1.166,66.572,25.531,82.658,35.575,86.462c0.671,12.683,1.337,26.604,1.985,41.907v142.781H193.468
				c0,0-0.001-32.402-0.004-32.471C193.374,278.405,191.169,227.033,179.642,203.226z M193.468,339.284v-16.199h124.635v16.199
				H193.468z"/>
			<g>
				<path d="M191.532,25.972c-1.309,0-2.6-0.54-3.53-1.47c-0.93-0.93-1.46-2.22-1.46-3.54c0-1.31,0.53-2.6,1.46-3.53
					c0.931-0.93,2.221-1.46,3.53-1.46c1.32,0,2.61,0.53,3.54,1.46c0.93,0.93,1.46,2.22,1.46,3.53c0,1.32-0.53,2.61-1.46,3.54
					C194.142,25.433,192.852,25.972,191.532,25.972z"/>
			</g>
		</g>
	</g>
</g>
<g>
</g>
<g>
</g>
<g>
</g>
<g>
</g>
<g>
</g>
<g>
</g>
<g>
</g>
<g>
</g>
<g>
</g>
<g>
</g>
<g>
</g>
<g>
</g>
<g>
</g>
<g>
</g>
<g>
</g>
</svg>
