<?xml version="1.0" encoding="iso-8859-1"?>
<!-- Generator: Adobe Illustrator 18.0.0, SVG Export Plug-In . SVG Version: 6.00 Build 0)  -->
<!DOCTYPE svg PUBLIC "-//W3C//DTD SVG 1.1//EN" "http://www.w3.org/Graphics/SVG/1.1/DTD/svg11.dtd">
<svg version="1.1" id="Capa_1" xmlns="http://www.w3.org/2000/svg" xmlns:xlink="http://www.w3.org/1999/xlink" x="0px" y="0px"
	 viewBox="0 0 331.957 331.957" style="enable-background:new 0 0 331.957 331.957;" xml:space="preserve">
<path style="fill:#231F20;" d="M325.701,79.481c1.983-16.625-2.278-33.129-12.15-46.746C303.163,18.403,287.808,8.97,270.31,6.166
	c-0.003,0-0.007-0.002-0.011-0.003l-0.021-0.003c-0.007-0.001-0.013-0.002-0.018-0.003c-0.002-0.001-0.004-0.001-0.006-0.001
	l-36.525-6.075c-0.058-0.01-0.114-0.012-0.172-0.019c-0.072-0.01-0.145-0.024-0.218-0.031c-0.038-0.004-0.077-0.004-0.115-0.007
	c-0.102-0.008-0.202-0.012-0.304-0.015c-0.02,0-0.04-0.002-0.061-0.003C232.82,0.005,232.783,0,232.744,0h-0.003
	c-0.042,0-0.082,0.004-0.123,0.005c-0.097,0.002-0.192,0.008-0.288,0.015c-0.104,0.007-0.206,0.015-0.309,0.027
	c-0.09,0.011-0.179,0.026-0.268,0.041c-0.07,0.012-0.143,0.019-0.213,0.033c-0.037,0.007-0.072,0.019-0.109,0.027
	c-0.08,0.018-0.159,0.04-0.238,0.061c-0.071,0.019-0.145,0.034-0.216,0.056c-0.042,0.013-0.083,0.03-0.125,0.044
	c-0.065,0.022-0.129,0.047-0.193,0.071c-0.015,0.005-0.028,0.01-0.043,0.016c-0.061,0.023-0.124,0.042-0.185,0.067
	c-0.044,0.019-0.086,0.041-0.13,0.061c-0.054,0.024-0.106,0.051-0.159,0.076c-0.014,0.007-0.028,0.014-0.042,0.021
	c-0.064,0.032-0.131,0.059-0.194,0.093c-0.041,0.023-0.081,0.048-0.122,0.072c-0.05,0.028-0.098,0.06-0.147,0.089
	c-0.076,0.046-0.155,0.09-0.23,0.14c-0.036,0.024-0.07,0.052-0.106,0.077c-0.046,0.033-0.091,0.068-0.137,0.101
	c-0.076,0.057-0.153,0.11-0.227,0.17c-0.029,0.024-0.056,0.051-0.084,0.076c-0.047,0.039-0.09,0.08-0.135,0.121
	c-0.072,0.064-0.145,0.127-0.213,0.195c-0.017,0.016-0.031,0.034-0.047,0.051c-0.008,0.007-0.014,0.015-0.02,0.021
	c-0.046,0.047-0.089,0.096-0.133,0.144c-0.064,0.07-0.13,0.139-0.19,0.212c-0.002,0.002-0.004,0.005-0.006,0.007
	c-0.018,0.021-0.033,0.044-0.051,0.066c-0.044,0.056-0.086,0.114-0.129,0.172c-0.055,0.072-0.109,0.142-0.16,0.217
	c-0.002,0.003-0.004,0.007-0.006,0.01c-0.015,0.021-0.026,0.044-0.041,0.066c-0.044,0.068-0.086,0.138-0.127,0.208
	c-0.042,0.069-0.086,0.136-0.125,0.207c-0.015,0.027-0.026,0.057-0.041,0.085c-0.042,0.08-0.08,0.163-0.119,0.245
	c-0.029,0.064-0.063,0.125-0.091,0.19c-0.015,0.034-0.025,0.07-0.039,0.104c-0.032,0.082-0.062,0.165-0.091,0.248
	c-0.037,0.106-0.073,0.212-0.105,0.321c-0.023,0.08-0.043,0.162-0.063,0.245c-0.02,0.08-0.043,0.158-0.059,0.239
	c-5.889,29.086-51.455,29.957-60.513,29.829c-0.028,0-0.056,0-0.083,0c-0.105,0-0.208,0.01-0.312,0.016
	c-0.104-0.005-0.206-0.016-0.311-0.016c-0.027,0-0.056,0-0.083,0c-9.06,0.121-54.624-0.743-60.513-29.829
	c-0.016-0.079-0.038-0.155-0.057-0.233c-0.021-0.086-0.042-0.171-0.066-0.255c-0.029-0.103-0.064-0.204-0.1-0.304
	c-0.031-0.09-0.063-0.181-0.098-0.269c-0.013-0.031-0.022-0.063-0.035-0.094c-0.026-0.062-0.059-0.12-0.086-0.181
	c-0.042-0.09-0.084-0.18-0.13-0.267c-0.048-0.092-0.1-0.181-0.152-0.27c-0.046-0.077-0.091-0.153-0.14-0.228
	c-0.062-0.094-0.127-0.184-0.193-0.274c-0.047-0.063-0.093-0.127-0.143-0.189c-0.075-0.093-0.154-0.183-0.234-0.272
	c-0.047-0.052-0.094-0.105-0.143-0.155c-0.088-0.09-0.18-0.176-0.272-0.261c-0.048-0.043-0.095-0.087-0.144-0.129
	c-0.1-0.084-0.202-0.164-0.307-0.242c-0.049-0.036-0.097-0.073-0.146-0.107c-0.025-0.018-0.049-0.038-0.075-0.055
	c-0.002-0.001-0.004-0.003-0.007-0.005c-0.081-0.055-0.166-0.104-0.25-0.154c-0.052-0.031-0.103-0.063-0.154-0.092
	c-0.014-0.007-0.026-0.016-0.04-0.024c-0.019-0.01-0.035-0.022-0.054-0.032c-0.084-0.045-0.171-0.084-0.257-0.125
	c-0.055-0.027-0.11-0.054-0.166-0.079c-0.01-0.004-0.02-0.009-0.029-0.014c-0.024-0.011-0.048-0.024-0.073-0.035
	c-0.084-0.036-0.172-0.065-0.259-0.096c-0.06-0.022-0.12-0.045-0.181-0.065c-0.03-0.01-0.06-0.023-0.09-0.032
	c-0.006-0.002-0.012-0.004-0.017-0.006c-0.084-0.026-0.172-0.045-0.258-0.068c-0.066-0.018-0.133-0.036-0.2-0.051
	c-0.12-0.027-0.241-0.048-0.362-0.068c-0.074-0.012-0.146-0.024-0.222-0.034c-0.118-0.015-0.237-0.023-0.357-0.031
	c-0.08-0.005-0.16-0.011-0.24-0.013c-0.115-0.002-0.23,0-0.346,0.005c-0.089,0.003-0.177,0.005-0.266,0.013
	c-0.043,0.003-0.086,0.003-0.13,0.008c-0.077,0.007-0.151,0.023-0.227,0.033c-0.055,0.007-0.108,0.01-0.162,0.019L61.7,6.156
	l-0.003,0.001c-0.003,0-0.006,0.001-0.01,0.001l-0.03,0.005c-0.006,0.001-0.011,0.003-0.017,0.003
	C44.146,8.972,28.793,18.405,18.405,32.735C8.534,46.352,4.273,62.856,6.255,79.481c-2.925,3.858-4.53,8.525-4.53,13.447
	c0.001,5.911,2.284,11.474,6.435,15.683l39.372,43.515c0.215,0.238,0.449,0.447,0.691,0.642c3.747,3.516,8.543,5.293,13.35,5.293
	c2.241,0,4.476-0.404,6.61-1.169l7.376,99.553l-11.36,68.53c-0.289,1.739,0.202,3.517,1.343,4.862c1.14,1.344,2.813,2.12,4.576,2.12
	H261.84c1.763,0,3.437-0.775,4.576-2.12c1.141-1.345,1.632-3.123,1.343-4.862l-11.36-68.53l7.376-99.553
	c2.134,0.765,4.369,1.169,6.61,1.169c4.807,0,9.603-1.777,13.35-5.293c0.242-0.195,0.477-0.404,0.691-0.642l39.372-43.515
	c4.15-4.209,6.434-9.772,6.435-15.683C330.232,88.006,328.627,83.339,325.701,79.481z M124.536,40.19
	c14.623,5.518,30.396,6.462,39.469,6.462c0.603,0,1.177-0.004,1.719-0.011c0.079-0.001,0.154-0.011,0.232-0.015
	c0.078,0.004,0.153,0.014,0.233,0.015c0.542,0.007,1.115,0.011,1.719,0.011c9.073,0,24.847-0.944,39.469-6.462
	c7.621-2.876,13.976-6.681,18.97-11.311c-0.473,8.552-1.506,16.425-3.786,23.645c-0.056,0.149-0.107,0.302-0.151,0.458
	c-0.045,0.158-5.352,15.762-35.039,15.762c-2.031,0-3.925,1.028-5.032,2.732l-15.87,24.434l-17.016-24.581
	c-1.121-1.619-2.965-2.585-4.934-2.585c-29.381,0-34.79-15.021-35.063-15.845c-0.039-0.127-0.081-0.252-0.127-0.375
	c-2.271-7.191-3.297-15.072-3.766-23.65C110.555,33.506,116.912,37.313,124.536,40.19z M144.25,84.899l11.518,16.639l-21.106-5.887
	L144.25,84.899z M188.38,84.204l10.209,11.447l-21.549,6.011L188.38,84.204z M87.579,256.275l-9.111-122.973
	c-0.197-13.881,0.241-23.945,7.484-36.395c1.666-2.864,0.695-6.537-2.169-8.203c-2.865-1.666-6.538-0.696-8.204,2.169
	c-8.794,15.116-9.326,27.787-9.107,42.781c0.001,0.119,0.007,0.237,0.016,0.356l0.712,9.609c-0.097,0.085-0.204,0.15-0.297,0.243
	c-2.939,2.938-7.721,2.938-10.66,0c-0.006-0.005-0.013-0.009-0.018-0.015l-39.26-43.391c-0.067-0.074-0.136-0.146-0.207-0.217
	c-1.955-1.956-3.033-4.553-3.033-7.313c0-2.76,1.077-5.356,3.033-7.312c0.921-0.921,1.467-2.068,1.664-3.262
	c0.132-0.674,0.156-1.379,0.042-2.097c-2.289-14.353,1.141-28.728,9.657-40.478c8.518-11.75,21.112-19.482,35.467-21.771
	c0.01-0.001,0.018-0.004,0.027-0.006c0.004,0,0.009,0,0.013-0.001l29.55-4.92c0.067,16.076,0.6,30.284,4.821,43.418
	c0.043,0.135,0.091,0.268,0.144,0.398c1.209,3.387,8.227,19.258,34.457,23.038l-13.303,14.917c-1.378,1.546-1.862,3.694-1.279,5.682
	c0.583,1.988,2.15,3.534,4.146,4.091l38.462,10.729v204.605H77.193L87.515,257.7C87.593,257.229,87.614,256.751,87.579,256.275z
	 M315.199,100.24c-0.071,0.071-0.14,0.143-0.207,0.217l-39.26,43.391c-0.006,0.005-0.012,0.009-0.018,0.015
	c-2.939,2.938-7.721,2.938-10.66,0c-0.092-0.092-0.2-0.158-0.297-0.243l0.712-9.609c0.009-0.119,0.015-0.237,0.016-0.356
	c0.219-14.994-0.313-27.665-9.107-42.781c-1.666-2.865-5.339-3.835-8.204-2.169c-2.864,1.667-3.835,5.339-2.169,8.203
	c7.243,12.45,7.682,22.513,7.484,36.395l-9.111,122.973c-0.035,0.476-0.014,0.954,0.064,1.425l10.321,62.257h-82.139V115.352
	l38.462-10.729c1.995-0.557,3.563-2.103,4.146-4.091c0.583-1.988,0.099-4.136-1.279-5.682L200.477,79.74
	c25.235-4.085,32.073-19.505,33.267-22.842c0.053-0.131,0.101-0.264,0.144-0.399c4.243-13.199,4.778-27.384,4.847-43.419
	l29.596,4.922c0.005,0.001,0.01,0,0.015,0.001c0.009,0.002,0.017,0.004,0.024,0.005c14.354,2.289,26.949,10.021,35.467,21.771
	c8.517,11.75,11.946,26.125,9.657,40.478c-0.114,0.717-0.09,1.423,0.042,2.097c0.197,1.194,0.742,2.341,1.664,3.262
	c1.956,1.956,3.033,4.552,3.033,7.312C318.232,95.687,317.154,98.284,315.199,100.24z"/>
<g>
</g>
<g>
</g>
<g>
</g>
<g>
</g>
<g>
</g>
<g>
</g>
<g>
</g>
<g>
</g>
<g>
</g>
<g>
</g>
<g>
</g>
<g>
</g>
<g>
</g>
<g>
</g>
<g>
</g>
</svg>
